<svg viewBox="0 0 913.56 286.18" xmlns="http://www.w3.org/2000/svg" data-name="Layer 1" id="Layer_1"><path style="fill:#9f231a" transform="translate(-115.91 -456.88)" d="M257.48,457.59c7.22-1.68,14.71-.15,21.62,2.11a37.74,37.74,0,0,1,22.73,20.53c4.12,9.34,4.84,19.8,4.05,29.87-.22,1.28.05,3.56,2,2.82,4-1.32,7.5-3.89,11.11-6.06,18.81-12,37.94-23.78,58.65-32.28,16.95-6.87,35-12.2,53.41-12,13.09-.19,27.23,2.15,37.4,11,9.38,8.26,12.42,21.34,12.68,33.33-2.59,17.91-10.78,34.37-18.87,50.34-11,20.43-23.12,40.65-39.29,57.48C430.11,622,436.64,630.58,438,641c2.32,15-5.11,29.42-14.24,40.8-6.83,8.13-14.19,16-23.14,21.87A211,211,0,0,1,298,742c-9.57,1.74-19.32.7-29,1-5.75.3-11.38-1.11-17.09-1.51A217.34,217.34,0,0,1,187.05,724c-8.35-3.88-16.58-8.3-23.65-14.27-2.45-2.19-5.33-5-4.77-8.61.71-4.79,3-9.12,5.15-13.38,7.9-14.64,17.64-28.18,27.38-41.62,23.61-31.23,46.37-63.18,72.29-92.58a142.74,142.74,0,0,1,13-13,15.15,15.15,0,0,0,5.25-9.35c1.8-11.08-3.37-22.75-12.2-29.51a35.6,35.6,0,0,0-22.42-7c-12.88.2-25.19,5-36.4,11.06-4,2.27-8.22,4.26-11.52,7.51-6,6-12.6,11.41-17.94,18C170,540.92,161.41,553.24,153.89,566a401.81,401.81,0,0,0-23.43,48.68c-1.81,5.34-2.58,11-3.74,16.46C124.26,644.85,121.36,659,124,673c.79,6.37,2.7,12.51,4.59,18.62.56,1.95,1.08,5.34-1.44,6a8.56,8.56,0,0,1-6.67-5.23,45.16,45.16,0,0,1-3.12-13.31c-.46-6.08-1.94-12.1-1.24-18.22,1.18-7.53,1.23-15.18,2.47-22.71a262.13,262.13,0,0,1,43.07-109.6c15.15-21.73,33.58-41.86,56.73-55.18C230.46,466.12,243.52,460.11,257.48,457.59ZM386,492.26c-26.86,9.43-51.82,23.66-75.46,39.4-2.47,1.8-5.55,3.27-6.72,6.3-2.85,6.18-5,12.65-8.32,18.62-13,24.54-26.35,49-41.84,72.07-1.83,3.05-4.83,5.31-6.12,8.69a34.84,34.84,0,0,0,4.11-1.64c28.53-14.81,59.4-25.56,91.35-29.73,20.77-2.89,41.88-2.3,62.64.41,3.81-3.07,7.91-5.83,11.23-9.46,8.6-9.17,15-20.16,20.72-31.26,6-12,12.19-24.28,14.42-37.68,1.63-9.26,2.61-19.5-1.88-28.14-3.48-6.7-10.78-10.51-18.06-11.44C416.62,486.18,401.4,486.5,386,492.26Zm-117.9,69.9c-9.79,10-18.38,21.09-26.91,32.15-24.48,32.15-47.35,65.48-70,98.89a9.25,9.25,0,0,0-2.1,6c6.6-3.86,12-9.4,17.59-14.53,20.51-20,38.58-42.32,55.83-65.13C253.75,604.23,264.89,588.7,274,572c2-4.16,4.47-8.31,5.07-13,.45-1.64-.83-2.6-2.19-3.07C273.31,556.81,270.8,559.8,268.14,562.16Zm2.59,79.51a301.33,301.33,0,0,0-89.91,61.12c-2.52,2.64-5.41,5.07-7.15,8.35.2,2.68,3.47,1.78,5.32,2.07,22.63-.67,44.83-5.94,66.6-11.8,35.9-10.2,71-24.17,102.61-44.23,14.73-9.64,29-20.42,40.44-33.92C348.59,618.31,307.58,625.57,270.73,641.67Zm58.61,39.73c-36.95,19.26-76.43,34.77-117.85,40.76a5.14,5.14,0,0,0,4.39,3.34c28.36,5.25,57.52,7.47,86.25,4.13,14.71-1.7,29.26-5.35,42.65-11.75,15.05-4.67,28-14.19,39.75-24.44,11.45-10.53,22.78-22.75,26.65-38.24,2.15-8-.83-16.43-6.53-22.14C380.8,651,355.79,667.52,329.34,681.4Z"></path><path style="fill:#9f231a" transform="translate(-115.91 -456.88)" d="M973.19,477.62c1.18.46,2.38.94,3.57,1.45,1.69,6.5,8,11.8,6.25,19-.88,5.14-2.37,10.2-2.27,15.47,6-2.11,11.39-5.52,16.61-9.08,3.16-.77,6.44-1.06,9.66-1.54,2.73.67,4.5,4.46,2.79,6.87-3,1.58-6.49,1.94-9.51,3.47-7.89,3.27-13.74,9.66-20.27,14.9a48.78,48.78,0,0,0-.15,17.21q7.47-3.2,15.14-5.91c-.78-2-1.57-4.07-2.29-6.12a16.16,16.16,0,0,1,10.08,4.31c3-.08,6.93-.14,8.61,2.94,2.47,3.44-1.91,7.1-5.3,7.06-9.47.55-17.72,5.74-25.46,10.75a73.12,73.12,0,0,0-.48,14.79A53.94,53.94,0,0,0,992,554.22c2-.57,3.95,1.67,5.95,2.2,4.82,1.76,1.17,7.7-1.13,10.28-5.08,6.37-9.92,12.93-14.82,19.45,1.57,6,2.75,12.15,3.89,18.28,1.56,7,5.64,13.26,10.62,18.35,3.67-3.91,2.23-9.59,3.69-14.31,2.5,5.39,2.7,11.44,4.42,17.08A13.88,13.88,0,0,1,993,631.82a4.42,4.42,0,0,1-3-1.77c-8-9.7-12.06-22.1-12.88-34.54-6.08,6.42-11.39,14-19.58,17.92-6.68,3.65-14.42,4.1-21.86,3.78-.48-2-.92-4.06-1.47-6.06l1.81-.84c2.19.68,4.61,2,6.83.6,6-3.43,11.09-8.3,16.49-12.61,6-4.7,10.64-10.88,15-17.11-1.42-5.93-2.51-12-2.17-18.14a134.75,134.75,0,0,1-21.16,11c-3.49,1.19-7.52,2.7-11,.85a22.74,22.74,0,0,1,1.61-4.84c.08-1.77-.75-4.24,1.25-5.25,4.25-2.79,7.06-7.13,10.49-10.79,5.9-6.82,12.19-13.31,18.09-20.12.06-.83.19-2.5.25-3.33a77.62,77.62,0,0,1-18.46,4.34c-3.68.22-6.62,2.69-10.14,3.45,2.22-3,5.41-4.94,8.46-7a183.05,183.05,0,0,1,20.21-11.6,240,240,0,0,1-1-28.75C970.9,486.49,970.9,481.71,973.19,477.62Zm-24.92,85.92c8-4.13,15.28-9.65,23.53-13.39a35.33,35.33,0,0,1-.32-12.64C962.85,545.3,954.59,553.74,948.27,563.54Z"></path><path style="fill:#9f231a" transform="translate(-115.91 -456.88)" d="M831.65,484.37c.85-2.76,4-3.53,6.47-3.87,2.28-.22,5.41-.66,6.61,1.88,1.58,5-1.8,9.56-3.39,14.07a39.6,39.6,0,0,1,18.79-3.82c2,3.84,1.19,8.11-.3,12A83,83,0,0,0,848,510c-5.25,3.13-11.09,5-16.75,7.25-1.72.57-2.47,2.34-3.39,3.74-6.36,11.64-13.19,23.06-21.34,33.55-11.22,15.09-19.5,32.55-33.59,45.34a40.52,40.52,0,0,1-22.7,11.18A504.09,504.09,0,0,0,812,521.45c-7.06-1.9-14.48-.21-21.67-1.06,9.37-6.84,20.47-10.8,31.2-15C825.21,498.54,829.08,491.73,831.65,484.37Z"></path><path style="fill:#9f231a" transform="translate(-115.91 -456.88)" d="M524.65,492.57c2.8-4.37,5.35-9.61,10.46-11.65,2.63,9.53,2.72,19.66,2.18,29.48,2.62-2.43,5.11-5,8.16-6.94-.12,4.27-3.09,7.53-4.74,11.26A26.08,26.08,0,0,0,538,525.11c-2.1,2.87-5.54,4.69-9.14,3.76-3.55-.12-4.78-4-6.3-6.52C517.67,513,519.27,501.41,524.65,492.57Z"></path><path style="fill:#9f231a" transform="translate(-115.91 -456.88)" d="M569.78,492.89c6.06-4.4,12.81-8.35,20.32-9.45,4.7-.24,10.08.28,13.56,3.81,1.47,5.62-.85,11.6-4.77,15.68-5.24,5.72-12.48,8.86-18.76,13.22-5,3-9.55,6.65-14.86,9.05,2.38-4.44,6.69-7.28,10-11,6.1-6.44,12.46-13.41,14.77-22.2,1.44-3.1-2.31-5.55-5-5.49-4.88.52-9.08,3.77-11.8,7.73-4.07,4.35-1.49,10.74-2.91,16-1.91,1.18-3.89,2.94-6.33,2.45a9.29,9.29,0,0,1-7.41-8c-.51-4.52.07-9.08.62-13.56C561.13,489,567.09,488.52,569.78,492.89Z"></path><path style="fill:#9f231a" transform="translate(-115.91 -456.88)" d="M930.62,485.45c1.22-2,3.94-2.08,5.74-.8,3.15,2,6.52,4.06,8.87,7a15.72,15.72,0,0,1-1.41,11.11c-2.57,4.91-6.68,8.73-10.06,13.05-4,4.64-7.19,10.13-12.21,13.82-1.45,1.2-3.29,2.24-3.76,4.21,2.29,1.36,5.45,1.87,6.69,4.52,1.64,3.56.31,7.59-1,11a79.88,79.88,0,0,1-13.23,20.76,13.67,13.67,0,0,1,8,10.66c9.38-5,16.55-13,24.59-19.69-1.25,3.92-3.73,7.25-5.94,10.66a251.11,251.11,0,0,1-29.71,37.36c-3.27,3-6,6.91-10.23,8.69-2.08.79-3.09-1.39-3.92-2.83-1.78-3.07-2.06-6.73-1.9-10.2.59-3.13,3.19-5.28,4.87-7.84a89.4,89.4,0,0,0,8-15.65c-3.84,1.83-6.77,5.47-11,6.39-2.52-.7-2.88-3.56-3-5.74-.14-2.89-.43-5.87.27-8.71,9.55-8.39,17.68-18.86,22.31-30.78a60.62,60.62,0,0,0-14.24,4.73c-2,1.07-4.91.7-5.81-1.62-1.42-3.9-2-8.43-.16-12.3,2-4.4,5.61-7.71,8.74-11.29C911.48,510.33,921.75,498.41,930.62,485.45Z"></path><path style="fill:#9f231a" transform="translate(-115.91 -456.88)" d="M1013.35,488.8c-.43-1.64.47-4.34,2.63-3.77,3.73.28,7,2.34,10.55,3.29,1,1,1.94,2,2.94,3a32.42,32.42,0,0,1-.41,5.65c-1.83,2.63-5.09,3.58-8.13,3.83C1018.36,496.83,1014.66,493.42,1013.35,488.8Z"></path><path style="fill:#9f231a" transform="translate(-115.91 -456.88)" d="M689.92,494c.63-3.22,1.67-6.42,4.08-8.77,2.18.91,4.57,1.89,5.79,4.08,3.33,4.95,3,11.36,1.17,16.81a140.11,140.11,0,0,0-5.78,20.29,108,108,0,0,0,18.47-9.7c3.07-2,6.68-3.76,10.45-3.4,2.61.26,5.53,3,4.09,5.69a10.39,10.39,0,0,1-5.28,5.9c-8.71,4.47-17.54,8.73-26.55,12.59-1.82.89-4.28,1.57-4.7,3.88-2.26,8.14-3.76,16.49-6.12,24.62a9.13,9.13,0,0,1,7,8.95c-1.28,7.62-5.89,14.13-10.71,20a19.75,19.75,0,0,0-3.24,6.24,67.33,67.33,0,0,1,21.29-1c2.6,3.3,3.85,9,.36,12.15-3,2-6.93.7-10.33,1.07-9.39.24-17.61,5.42-26.75,6.87-5.49.84-10.58,3.9-16.26,3.37a6.12,6.12,0,0,1-2.56-7.13c2-3.26,5.58-5.06,8.21-7.75,3.25-3.29,7.11-6.14,9.31-10.31-3.33-4.46-7.22-8.91-8.37-14.51a5.43,5.43,0,0,1,2.44-6A76.17,76.17,0,0,1,673.38,569c1.14-3.27,1.23-6.76,2.08-10.1,1-4.29,2.53-8.47,3.2-12.84-5.72,1-10.6,4.45-15.93,6.6-5.74,2.85-12,4.47-17.81,7.14-2.62,1-3.77,3.68-5.36,5.77-2,2.76-6.69,1.9-8.25-.89-2-3.21-1.6-7.28-.38-10.69,1.62-5.33,4.52-10.12,7-15.07,1.3-2.24,3-5.24,6.07-4.92,3.66,3.2,2.2,8.58,3.32,12.79,1.55.4,3-.37,4.44-.86,8.7-3.22,17.44-6.41,25.86-10.34,2-.88,4-2.33,4.43-4.65C684.5,518.59,687.27,506.3,689.92,494Zm-29.73,93.38c.3,3.92,3.55,6.66,5.95,9.45,4.05-3.94,4.61-9.89,5.34-15.18C667.3,582.41,663,584.06,660.19,587.36Z"></path><path style="fill:#9f231a" transform="translate(-115.91 -456.88)" d="M565.9,532.25a88.92,88.92,0,0,1,24.15-1.45c6.85.42,13.2,7,11.79,14.05-.92,5.11-6.32,7.42-10.89,8.23-7.65,1.13-14.73,4.56-21.15,8.74a9.84,9.84,0,0,1-5.21,9.71c-7.65,4.09-12.86,11.3-17.45,18.44,1.66,2.94,3.12,6,4.56,9,6.23-1.23,12.86-2.6,19.1-.84,5.48,2.5,2.07,11.11-2.84,12.25-5.6,1-10.87-2-16.46-1.86-.86,4.39-.81,9.06-2.65,13.22a31.08,31.08,0,0,1-15.94,9.72c-2.39.53-5.08,1.25-7.31-.13a67.25,67.25,0,0,1-13-9.1c-2.19-2.11-.35-5.47,1.22-7.4,7.59-8.52,18.92-12.15,29.75-14.48-2-6.62-4.23-14-.71-20.57,2.39-3.28,5.18-6.24,7.6-9.5-7.64,3-15.16,7.5-23.59,7.46-3.06,0-4.24-3.24-5.85-5.24,3.23-.48,6.72-.06,9.67-1.75a89.46,89.46,0,0,1,36.11-10.51c5.75-2.17,10.33-6.67,15-10.53,2.31-2.07,5.6-5.15,3.81-8.52-3-3.14-7.81-3.61-11.84-2.84-17.75,2.87-34.84,8.92-51.13,16.42-4.64,2.27-9.47,4.27-13.77,7.16-4,2.53-3.77,7.83-5.51,11.74a9.17,9.17,0,0,1-7.93.79c-2.49-1.09-2.74-4-3.11-6.37-.36-2.77-.57-6,1.61-8.17a76.28,76.28,0,0,0,9.9-14.21c.95.35,1.91.71,2.87,1.09.07,2.51.18,5,.31,7.53C525.92,545.17,545.25,536.41,565.9,532.25Zm-47.85,83c-1.76.54-3.89,2.95-2.13,4.62,4.44,4,11.25,4.67,16.73,2.63,4.87-2.6,7.72-7.66,9.51-12.69A70,70,0,0,0,518.05,615.2Z"></path><path style="fill:#9f231a" transform="translate(-115.91 -456.88)" d="M842.6,540.59a3.62,3.62,0,0,1,3.34-2.62c3.87.26,7,2.83,9.94,5.13-1,5.16-1.86,10.33-2.76,15.51,2,.19,4.47-.4,6.09,1.19,1.75,1.22.6,3.43.3,5.1-1.39,4.91-5.45,8.27-9.47,11.06-3.2,2.11-3.28,6.25-4.6,9.49-1.82,5.72-5.61,10.44-8.59,15.55,7.9-2.74,16.46-4,24.75-2.5,1.36,1.46,3.31,3.85,1.78,5.82a34.14,34.14,0,0,1-9.51,10.57c-3.28,2-7,3.32-9.92,5.89-3.18,2.74-7.14,4.29-10.45,6.83a20.16,20.16,0,0,1-5.11,2.93c2.3-2.76,5.31-4.77,7.78-7.37a40.29,40.29,0,0,0,8.61-13.42,70.62,70.62,0,0,0-18.6,6.17c-3.82-3.12-6.44-9-4-13.65a151,151,0,0,0,6.84-19.15,80.93,80.93,0,0,0-17.44,3.33,7.18,7.18,0,0,1-4.88-.19c9.61-5.68,19.78-10.69,28.5-17.71C837.51,559.21,838.6,549.44,842.6,540.59Z"></path><path style="fill:#9f231a" transform="translate(-115.91 -456.88)" d="M802.06,568.59c-1,19.14-3.91,38.15-6.09,57.19-2.81,1.3-6.39,4.16-9.29,1.55-1.89-1.48-4.53-3.56-3.65-6.28,3.11-13.2,8.32-25.76,12.6-38.59C797.14,577.54,800.29,573.4,802.06,568.59Z"></path><path style="fill:#9f231a" transform="translate(-115.91 -456.88)" d="M581.24,668.38l5.48,0A54.9,54.9,0,0,1,578.49,685c1.92,0,3.85,0,5.78,0,.8-2,1.63-4,2.43-6.06,1.74,0,3.49.06,5.25.11a63.48,63.48,0,0,1-12.07,20.42c3.6-.27,7.2-.63,10.77-1.17,0,1.31-.08,2.63-.1,4a101.39,101.39,0,0,1-15.76,1.25c0-1.46,0-2.92,0-4.37a72.27,72.27,0,0,0,7.48-10.25c-2.89.11-5.78.22-8.67.21-.43-4.57,3-7.88,4.6-11.81A66.38,66.38,0,0,0,581.24,668.38Z"></path><path style="fill:#9f231a" transform="translate(-115.91 -456.88)" d="M600.41,668.39c1.9,0,3.81,0,5.73,0-.51,1.46-1,2.92-1.53,4.39,5.79,0,11.59,0,17.39,0,0,6.72-5.29,11.82-9.85,16.12,3.9,1.85,8.05,3.11,12,4.83.11.8.34,2.39.45,3.19a72.17,72.17,0,0,1-16.7-5.61A58.94,58.94,0,0,1,591.43,697c.1-.8.29-2.39.39-3.18,4-1.62,8.2-2.83,12-4.88a46.89,46.89,0,0,1-6.74-7l-4.66,3c0-.92,0-2.78-.05-3.7A22.52,22.52,0,0,0,600.41,668.39Zm.2,9.79a56,56,0,0,0,7.35,7.9,38.19,38.19,0,0,0,7.68-9.44C610.69,677.18,604.94,675.07,600.61,678.18Z"></path><path style="fill:#9f231a" transform="translate(-115.91 -456.88)" d="M670.21,668.4H677c0,2.13,0,4.26,0,6.41,7.06,0,14.12,0,21.18,0,0,1.33,0,2.65,0,4h-7.39c-2.12,9.65-6.16,19.19-13.58,26a69.47,69.47,0,0,0,21.38,9.77c0,1.21,0,2.43,0,3.66-8.76-2.47-17.54-5.33-25.33-10.15-7.66,4.86-16.34,7.75-25,10.18,0-1.25,0-2.48,0-3.7a71,71,0,0,0,21.2-9.53c-7.21-7-11.23-16.55-13.54-26.19h-7.47c0-1.34,0-2.67,0-4,7.25,0,14.51,0,21.77,0Q670.2,671.59,670.21,668.4Zm-7.79,10.41c1.34,8.4,4.69,16.66,11,22.61,6.26-6,9.46-14.29,11.08-22.62C677.1,678.8,669.76,678.79,662.42,678.81Z"></path><path style="fill:#9f231a" transform="translate(-115.91 -456.88)" d="M733.22,668.37c2,0,4,0,6.07,0-1,4.33-3,8.36-4.58,12.51-.3,12.54,0,25.11-.11,37.66H729q0-16.12,0-32.24c-2.14,1.16-4.33,2.24-6.54,3.26,0-1.09-.08-2.18-.1-3.26C728.4,682.2,731.89,675.44,733.22,668.37Z"></path><path style="fill:#9f231a" transform="translate(-115.91 -456.88)" d="M748,668.39q3.09,0,6.2,0c0,7.53,0,15.07,0,22.61A38.22,38.22,0,0,0,766.5,675.2l6.1,0c-3.57,8.9-9.86,16.78-18.4,21.33.08,4.81-.21,9.64.11,14.45.05,1.36,1.5,2.16,2.74,2.26a34.2,34.2,0,0,0,8.87-.15c2.3-1,1.58-4,2.08-5.92l4.7,0c-.21,3.18.41,7.62-3.1,9.28-4.36,1.46-9.09.79-13.62.85-3.13.07-7-1.09-7.67-4.62-.68-4.41-.18-8.9-.3-13.34-3.11,1-6.26,2-9.41,2.85,0-1.33,0-2.66,0-4q4.74-1.57,9.37-3.46C748,686,748,677.2,748,668.39Z"></path><path style="fill:#9f231a" transform="translate(-115.91 -456.88)" d="M882,668.39l5.92,0c-1,4.38-3.23,8.37-4.44,12.66-.19,12.49,0,25-.07,37.51-1.81,0-3.61,0-5.39,0q0-16.14,0-32.26c-2.16,1.14-4.35,2.22-6.56,3.26,0-1.09-.06-2.16-.07-3.23C877.41,682.27,880.71,675.42,882,668.39Z"></path><path style="fill:#9f231a" transform="translate(-115.91 -456.88)" d="M968.4,668.6h6.4c0,1.32,0,2.65,0,4,6.93,0,13.87,0,20.8,0,0,3.06,0,6.12,0,9.19-1.61,0-3.22,0-4.79,0,0,1.26,0,2.52,0,3.79-6.65,0-13.29-.09-19.93,0-1.47-.24-2.44,1-3.47,1.73a62.47,62.47,0,0,1-8.06,5.85,175.11,175.11,0,0,0,24.56-.62c-1-1.48-2-2.94-3-4.39h5.24a54.48,54.48,0,0,1,6.1,10.37l-5.88,0c-.22-.64-.67-1.93-.89-2.58-3.7.21-7.38.5-11.06.73,0,1.94,0,3.89,0,5.84h18v3.8h-18c0,2.33,0,4.66,0,7,7.46,0,14.92,0,22.39,0,0,1.25,0,2.52,0,3.8H946.2c0-1.28,0-2.55,0-3.8,7.45,0,14.91,0,22.37,0l0-7H950.8v-3.8h17.8c0-1.81,0-3.62,0-5.41H952.2c0-1.3,0-2.59,0-3.86a66.61,66.61,0,0,0,10.2-7.71c-3.27,0-6.53,0-9.78,0,0-1.27,0-2.53,0-3.78-1.74,0-3.45,0-5.17,0q0-4.6,0-9.19h21C968.39,671.26,968.39,669.92,968.4,668.6Zm-15.19,7.8c0,1.79,0,3.59,0,5.41H990c0-1.81,0-3.62,0-5.41Z"></path><path style="fill:#9f231a" transform="translate(-115.91 -456.88)" d="M886.62,683.36a23.36,23.36,0,0,0,9.29-14.76c1.93,0,3.86,0,5.81,0-.53,1.85-1.05,3.72-1.57,5.59,7.46,0,14.92,0,22.39,0,0,.89.11,2.66.15,3.54-5.9.12-11.8,0-17.69.06,0,3.54,0,7.07,0,10.61h14.57c0,1.24,0,2.5.08,3.76-4.88.05-9.77,0-14.65,0q0,5.4,0,10.82h16.41c0,1.27,0,2.54,0,3.82-5.46,0-10.91,0-16.36,0q0,5.9,0,11.8h-5.78c-.06-13.77.1-27.55-.09-41.32a32.77,32.77,0,0,1-12.46,9.4Z"></path><path style="fill:#9f231a" transform="translate(-115.91 -456.88)" d="M501.81,671H547c0,12.67,0,25.34,0,38-.06,2.66,0,6-2.39,7.72-2.63,2-6.15,1.3-9.21,1.52,0-1,0-2.91,0-3.88,1.9-.41,5.74.51,5.93-2.36.28-12.34,0-24.69.11-37-11.41,0-22.81,0-34.21,0,0,14.39,0,28.78,0,43.17-1.8,0-3.59,0-5.38,0Z"></path><path style="fill:#9f231a" transform="translate(-115.91 -456.88)" d="M800.39,676.78c0-1.4,0-2.78,0-4.17q22,0,44,0c0,1.38,0,2.77,0,4.17H825.59v34.62c7.34,0,14.68,0,22,0,0,1.25,0,2.51-.06,3.78-16.65,0-33.3,0-49.95,0,0-1,0-2.83,0-3.77,7.27,0,14.54,0,21.82,0q0-17.31,0-34.62Z"></path><path style="fill:#9f231a" transform="translate(-115.91 -456.88)" d="M509.46,678c1.37,0,2.76,0,4.15,0a77.3,77.3,0,0,0,3.25,14.51,96.84,96.84,0,0,0,3.36-14.06q2,0,4-.06C523,685,521.59,691.56,519,697.74c2,4.67,5.95,8.86,5.1,14.33a105.88,105.88,0,0,1-7.3-10.21,75.92,75.92,0,0,1-7.15,10.2c-1-5.4,3.26-9.41,5.09-14.08A91.06,91.06,0,0,1,509.46,678Z"></path><path style="fill:#9f231a" transform="translate(-115.91 -456.88)" d="M535.34,678.43c1.3,0,2.61-.06,3.92-.08A85.47,85.47,0,0,1,534,697.92c2.06,4.53,5.89,8.64,5,14a69.49,69.49,0,0,1-7-10,100.3,100.3,0,0,1-7.1,10.15c-.89-5.41,3.06-9.53,5.13-14.1a86.49,86.49,0,0,1-5.47-19.52l4-.07a116.16,116.16,0,0,0,3.42,14A105.86,105.86,0,0,0,535.34,678.43Z"></path><path style="fill:#9f231a" transform="translate(-115.91 -456.88)" d="M594.8,698H621c-.12,5,.26,10.06-.17,15.07-.36,2.78-3.29,4.27-5.87,4.21-6.72.3-13.44,0-20.16.11Zm5.4,3.8q0,5.88,0,11.78c4.89-.32,10,.85,14.75-.68,1.26-3.53.42-7.41.66-11.07C610.48,701.77,605.34,701.8,600.2,701.8Z"></path><path style="fill:#9f231a" transform="translate(-115.91 -456.88)" d="M573.41,710.25a86.93,86.93,0,0,0,17.78-1.65c0,.94,0,2.82,0,3.76a78.44,78.44,0,0,1-17.79,2.1C573.4,713.05,573.4,711.64,573.41,710.25Z"></path></svg>